<svg width="21" height="17" viewBox="0 0 21 17" fill="none" xmlns="http://www.w3.org/2000/svg">
<g clip-path="url(#clip0_1690_2466)">
<path d="M20.3203 8.57034L18.4453 10.4453C18.3258 10.5608 18.1661 10.6254 18 10.6254C17.8338 10.6254 17.6741 10.5608 17.5547 10.4453L15.6797 8.57034C15.5948 8.47997 15.5373 8.3674 15.5138 8.24578C15.4903 8.12409 15.5018 7.99828 15.5468 7.88284C15.5947 7.76909 15.675 7.67203 15.7779 7.6039C15.8808 7.53578 16.0015 7.49965 16.125 7.50003H17.3437C17.2163 6.07422 16.6467 4.72378 15.7142 3.63765C14.7817 2.55151 13.5332 1.78392 12.143 1.4422C10.7529 1.10048 9.29072 1.20172 7.96097 1.73177C6.63124 2.26181 5.50037 3.19416 4.7265 4.39847C4.68147 4.46734 4.62328 4.52659 4.55528 4.5729C4.48728 4.61928 4.41079 4.65172 4.33023 4.66841C4.24966 4.68509 4.16658 4.68572 4.08577 4.67022C4.00496 4.65472 3.928 4.62347 3.85931 4.57815C3.79008 4.53447 3.73023 4.47747 3.68324 4.4104C3.63626 4.34339 3.60307 4.26769 3.58563 4.18771C3.56818 4.10774 3.56681 4.02509 3.58161 3.94458C3.5964 3.86407 3.62707 3.78731 3.67181 3.71876C4.59375 2.28897 5.94124 1.18464 7.52428 0.561493C9.10728 -0.0616513 10.846 -0.17217 12.4952 0.245518C14.1443 0.663211 15.6208 1.58804 16.7164 2.88959C17.8119 4.19114 18.4713 5.80372 18.6015 7.50003H19.875C19.9983 7.49965 20.1191 7.53578 20.222 7.6039C20.3248 7.67203 20.4052 7.76909 20.4531 7.88284C20.4981 7.99828 20.5095 8.12409 20.486 8.24578C20.4625 8.3674 20.405 8.47997 20.3203 8.57034ZM17.1406 11.6719C17.0719 11.6266 16.9949 11.5953 16.9141 11.5798C16.8333 11.5643 16.7502 11.565 16.6697 11.5817C16.5891 11.5983 16.5126 11.6308 16.4446 11.6771C16.3766 11.7234 16.3184 11.7827 16.2734 11.8516C16.0847 12.1488 15.873 12.4309 15.6406 12.6953C15.1347 11.9696 14.4827 11.3576 13.7265 10.8985C12.8583 11.7303 11.7023 12.1946 10.5 12.1946C9.29753 12.1946 8.14159 11.7303 7.27341 10.8985C6.51718 11.3576 5.86524 11.9696 5.35931 12.6953C4.38274 11.5972 3.78558 10.2138 3.65619 8.75003H4.87494C4.99833 8.75041 5.11908 8.71428 5.22196 8.64615C5.32484 8.57803 5.40525 8.48097 5.45306 8.36722C5.49809 8.25178 5.50951 8.12591 5.48601 8.00428C5.46251 7.88259 5.40504 7.77009 5.32025 7.67972L3.44525 5.80472C3.32676 5.68734 3.16672 5.62147 2.99994 5.62147C2.83316 5.62147 2.67313 5.68734 2.55463 5.80472L0.679627 7.67972C0.594839 7.77009 0.53737 7.88259 0.513866 8.00428C0.490363 8.12591 0.501786 8.25178 0.546814 8.36722C0.594628 8.48097 0.675042 8.57803 0.777923 8.64615C0.880804 8.71428 1.00155 8.75041 1.12494 8.75003H2.39838C2.55837 10.8433 3.52468 12.7927 5.09369 14.1875L5.12494 14.211C6.0009 14.9865 7.03416 15.5634 8.15391 15.9023C9.27366 16.2413 10.4534 16.3342 11.6124 16.1747C12.7714 16.0152 13.8822 15.607 14.8687 14.9781C15.8553 14.3493 16.6942 13.5146 17.3281 12.5313C17.3728 12.4627 17.4035 12.386 17.4183 12.3055C17.4331 12.225 17.4317 12.1423 17.4143 12.0623C17.3968 11.9823 17.3636 11.9067 17.3167 11.8396C17.2697 11.7726 17.2098 11.7156 17.1406 11.6719ZM10.5 10.9375C11.1798 10.9375 11.8444 10.7359 12.4097 10.3582C12.975 9.98047 13.4156 9.44359 13.6758 8.81547C13.936 8.18734 14.004 7.49622 13.8714 6.8294C13.7388 6.16259 13.4113 5.55009 12.9306 5.06934C12.4499 4.58859 11.8373 4.2612 11.1705 4.12856C10.5038 3.99592 9.81259 4.064 9.18447 4.32417C8.55634 4.58434 8.01947 5.02497 7.64178 5.59022C7.26403 6.15553 7.06247 6.82016 7.06247 7.50003C7.06247 8.41172 7.42459 9.28603 8.06928 9.93072C8.71391 10.5753 9.58828 10.9375 10.5 10.9375Z" fill="#ACAFB5"/>
</g>
<defs>
<clipPath id="clip0_1690_2466">
<rect width="20" height="16.25" fill="white" transform="translate(0.5)"/>
</clipPath>
</defs>
</svg>
