<svg width="16" height="22" viewBox="0 0 16 22" fill="none" xmlns="http://www.w3.org/2000/svg">
<path d="M15.499 17.5708V10.5439C15.499 8.44366 14.6235 6.41954 13.0987 4.97684L13.751 3.48412C13.8846 3.17961 13.7995 2.8236 13.545 2.61163C13.4427 2.52729 11.0245 0.548706 7.66296 0.548706C5.67542 0.548706 3.7849 1.23759 2.0444 2.59745C1.79064 2.79524 1.69212 3.13334 1.80034 3.43636L2.41011 5.1485C0.991289 6.57851 0.175523 8.52426 0.175523 10.5446V17.5716C0.175523 17.5716 -0.156606 20.8399 3.2102 21.1056C3.2102 21.1056 5.18133 21.2384 6.17025 19.5405C4.10956 18.8591 2.61835 16.9282 2.61835 14.6541L2.5855 12.4001C2.17576 12.3553 1.8802 11.9866 1.92423 11.5769C1.96902 11.1671 2.331 10.8708 2.74746 10.9156C5.0843 11.1716 6.79868 10.8514 7.71148 9.99384C7.71148 9.99384 8.48993 9.31242 8.4429 8.29812C8.4429 8.29812 8.50485 7.54505 9.23628 7.58535C9.23628 7.58535 9.84307 7.58386 9.93263 8.29812C9.93412 8.30931 10.0177 9.72067 10.9305 10.4991C11.4321 10.9275 12.1262 11.0977 12.989 11.0059C13.4069 10.9663 13.7667 11.2597 13.8099 11.6694C13.8099 11.6694 13.8898 12.5307 12.9412 12.5016L12.9531 14.6489C12.9531 16.9029 11.5 18.8165 9.48556 19.5158C10.4894 21.3101 12.5732 21.0951 12.5732 21.0951C15.7826 20.6667 15.499 17.5708 15.499 17.5708ZM10.1267 4.35363C10.1267 4.54096 9.97443 4.69173 9.78784 4.69173H8.67353V5.79484C8.67353 5.98143 8.52202 6.13369 8.33543 6.13369H7.3383C7.15171 6.13369 7.0002 5.98143 7.0002 5.79484V4.69173H5.88589C5.6993 4.69173 5.54704 4.54096 5.54704 4.35363V3.37217C5.54704 3.18483 5.6993 3.03332 5.88589 3.03332H7.0002V1.93245C7.0002 1.74511 7.15171 1.5936 7.3383 1.5936H8.33543C8.52202 1.5936 8.67353 1.74511 8.67353 1.93245V3.03332H9.78784C9.97443 3.03332 10.1267 3.18483 10.1267 3.37217V4.35363Z" fill="#ACAFB5"/>
</svg>
