<svg width="33" height="35" viewBox="0 0 33 35" fill="none" xmlns="http://www.w3.org/2000/svg">
<rect width="33" height="35" rx="4" fill="#FFC406" fill-opacity="0.15"/>
<path d="M20.7144 13.5714H20.2859V10.9999C20.2859 8.59995 18.4001 6.71423 16.0001 6.71423C13.6001 6.71423 11.7144 8.59995 11.7144 10.9999V13.5714H11.2859C9.143 13.5714 7.42871 15.2857 7.42871 17.4285V23.4285C7.42871 25.5714 9.143 27.2857 11.2859 27.2857H20.7144C22.8573 27.2857 24.5716 25.5714 24.5716 23.4285V17.4285C24.5716 15.2857 22.8573 13.5714 20.7144 13.5714ZM13.4287 10.9999C13.4287 9.5428 14.543 8.42852 16.0001 8.42852C17.4573 8.42852 18.5716 9.5428 18.5716 10.9999V13.5714H13.4287V10.9999ZM16.8573 21.2857C16.8573 21.7999 16.5144 22.1428 16.0001 22.1428C15.4859 22.1428 15.143 21.7999 15.143 21.2857V19.5714C15.143 19.0571 15.4859 18.7142 16.0001 18.7142C16.5144 18.7142 16.8573 19.0571 16.8573 19.5714V21.2857Z" fill="#FFC406"/>
</svg>
