<svg width="33" height="35" viewBox="0 0 33 35" fill="none" xmlns="http://www.w3.org/2000/svg">
<rect width="33" height="35" rx="4" fill="#FFC406" fill-opacity="0.15"/>
<path d="M10.1406 27H21.8594C22.8287 27 23.6172 26.2115 23.6172 25.2422V12.8594H19.5156C18.5463 12.8594 17.7578 12.0709 17.7578 11.1016V7H10.1406C9.17133 7 8.38281 7.78852 8.38281 8.75781V25.2422C8.38281 26.2115 9.17133 27 10.1406 27ZM12.4844 15.2422H19.5156C19.8395 15.2422 20.1016 15.5043 20.1016 15.8281C20.1016 16.152 19.8395 16.4141 19.5156 16.4141H12.4844C12.1605 16.4141 11.8984 16.152 11.8984 15.8281C11.8984 15.5043 12.1605 15.2422 12.4844 15.2422ZM12.4844 17.5859H19.5156C19.8395 17.5859 20.1016 17.848 20.1016 18.1719C20.1016 18.4957 19.8395 18.7578 19.5156 18.7578H12.4844C12.1605 18.7578 11.8984 18.4957 11.8984 18.1719C11.8984 17.848 12.1605 17.5859 12.4844 17.5859ZM12.4844 19.9297H19.5156C19.8395 19.9297 20.1016 20.1918 20.1016 20.5156C20.1016 20.8395 19.8395 21.1016 19.5156 21.1016H12.4844C12.1605 21.1016 11.8984 20.8395 11.8984 20.5156C11.8984 20.1918 12.1605 19.9297 12.4844 19.9297ZM12.4844 22.2734H17.1719C17.4957 22.2734 17.7578 22.5355 17.7578 22.8594C17.7578 23.1832 17.4957 23.4453 17.1719 23.4453H12.4844C12.1605 23.4453 11.8984 23.1832 11.8984 22.8594C11.8984 22.5355 12.1605 22.2734 12.4844 22.2734Z" fill="#FFC406"/>
<path d="M19.5156 11.6874H23.2739L18.9297 7.34326V11.1015C18.9297 11.4248 19.1923 11.6874 19.5156 11.6874Z" fill="#FFC406"/>
</svg>
