<svg width="20" height="17" viewBox="0 0 20 17" fill="none" xmlns="http://www.w3.org/2000/svg">
<g clip-path="url(#clip0_3099_3866)">
<path d="M19.8203 8.57034L17.9453 10.4453C17.8258 10.5608 17.6661 10.6254 17.5 10.6254C17.3338 10.6254 17.1741 10.5608 17.0547 10.4453L15.1797 8.57034C15.0948 8.47997 15.0373 8.3674 15.0138 8.24578C14.9903 8.12409 15.0018 7.99828 15.0468 7.88284C15.0947 7.76909 15.175 7.67203 15.2779 7.6039C15.3808 7.53578 15.5015 7.49965 15.625 7.50003H16.8437C16.7163 6.07422 16.1467 4.72378 15.2142 3.63765C14.2817 2.55151 13.0332 1.78392 11.643 1.4422C10.2529 1.10048 8.79072 1.20172 7.46097 1.73177C6.13124 2.26181 5.00037 3.19416 4.2265 4.39847C4.18147 4.46734 4.12328 4.52659 4.05528 4.5729C3.98728 4.61928 3.91079 4.65172 3.83023 4.66841C3.74966 4.68509 3.66658 4.68572 3.58577 4.67022C3.50496 4.65472 3.428 4.62347 3.35931 4.57815C3.29008 4.53447 3.23023 4.47747 3.18324 4.4104C3.13626 4.34339 3.10307 4.26769 3.08563 4.18771C3.06818 4.10774 3.06681 4.02509 3.08161 3.94458C3.0964 3.86407 3.12707 3.78731 3.17181 3.71876C4.09375 2.28897 5.44124 1.18464 7.02428 0.561493C8.60728 -0.0616513 10.346 -0.17217 11.9952 0.245518C13.6443 0.663211 15.1208 1.58804 16.2164 2.88959C17.3119 4.19114 17.9713 5.80372 18.1015 7.50003H19.375C19.4983 7.49965 19.6191 7.53578 19.722 7.6039C19.8248 7.67203 19.9052 7.76909 19.9531 7.88284C19.9981 7.99828 20.0095 8.12409 19.986 8.24578C19.9625 8.3674 19.905 8.47997 19.8203 8.57034ZM16.6406 11.6719C16.5719 11.6266 16.4949 11.5953 16.4141 11.5798C16.3333 11.5643 16.2502 11.565 16.1697 11.5817C16.0891 11.5983 16.0126 11.6308 15.9446 11.6771C15.8766 11.7234 15.8184 11.7827 15.7734 11.8516C15.5847 12.1488 15.373 12.4309 15.1406 12.6953C14.6347 11.9696 13.9827 11.3576 13.2265 10.8985C12.3583 11.7303 11.2023 12.1946 9.99997 12.1946C8.79753 12.1946 7.64159 11.7303 6.77341 10.8985C6.01718 11.3576 5.36524 11.9696 4.85931 12.6953C3.88274 11.5972 3.28558 10.2138 3.15619 8.75003H4.37494C4.49833 8.75041 4.61908 8.71428 4.72196 8.64615C4.82484 8.57803 4.90525 8.48097 4.95306 8.36722C4.99809 8.25178 5.00951 8.12591 4.98601 8.00428C4.96251 7.88259 4.90504 7.77009 4.82025 7.67972L2.94525 5.80472C2.82676 5.68734 2.66672 5.62147 2.49994 5.62147C2.33316 5.62147 2.17313 5.68734 2.05463 5.80472L0.179627 7.67972C0.0948395 7.77009 0.0373699 7.88259 0.0138663 8.00428C-0.00963727 8.12591 0.00178593 8.25178 0.0468144 8.36722C0.0946276 8.48097 0.175042 8.57803 0.277923 8.64615C0.380804 8.71428 0.501549 8.75041 0.62494 8.75003H1.89838C2.05837 10.8433 3.02468 12.7927 4.59369 14.1875L4.62494 14.211C5.5009 14.9865 6.53416 15.5634 7.65391 15.9023C8.77366 16.2413 9.95341 16.3342 11.1124 16.1747C12.2714 16.0152 13.3822 15.607 14.3687 14.9781C15.3553 14.3493 16.1942 13.5146 16.8281 12.5313C16.8728 12.4627 16.9035 12.386 16.9183 12.3055C16.9331 12.225 16.9317 12.1423 16.9143 12.0623C16.8968 11.9823 16.8636 11.9067 16.8167 11.8396C16.7697 11.7726 16.7098 11.7156 16.6406 11.6719ZM9.99997 10.9375C10.6798 10.9375 11.3444 10.7359 11.9097 10.3582C12.475 9.98047 12.9156 9.44359 13.1758 8.81547C13.436 8.18734 13.504 7.49622 13.3714 6.8294C13.2388 6.16259 12.9113 5.55009 12.4306 5.06934C11.9499 4.58859 11.3373 4.2612 10.6705 4.12856C10.0038 3.99592 9.31259 4.064 8.68447 4.32417C8.05634 4.58434 7.51947 5.02497 7.14178 5.59022C6.76403 6.15553 6.56247 6.82016 6.56247 7.50003C6.56247 8.41172 6.92459 9.28603 7.56928 9.93072C8.21391 10.5753 9.08828 10.9375 9.99997 10.9375Z" fill="#ACAFB5"/>
</g>
<defs>
<clipPath id="clip0_3099_3866">
<rect width="20" height="16.25" fill="white"/>
</clipPath>
</defs>
</svg>
