<svg width="33" height="35" viewBox="0 0 33 35" fill="none" xmlns="http://www.w3.org/2000/svg">
<rect width="33" height="35" rx="4" fill="#00C6B7" fill-opacity="0.1"/>
<path d="M16 7C14.0222 7 12.0888 7.58649 10.4443 8.6853C8.79981 9.78412 7.51809 11.3459 6.76121 13.1732C6.00433 15.0004 5.8063 17.0111 6.19215 18.9509C6.578 20.8907 7.53041 22.6725 8.92894 24.0711C10.3275 25.4696 12.1093 26.422 14.0491 26.8078C15.9889 27.1937 17.9996 26.9957 19.8268 26.2388C21.6541 25.4819 23.2159 24.2002 24.3147 22.5557C25.4135 20.9112 26 18.9778 26 17C25.9964 14.3489 24.9417 11.8075 23.0671 9.93289C21.1925 8.05831 18.6511 7.00359 16 7ZM15.7492 22.5661C15.548 22.5661 15.3514 22.5065 15.1842 22.3947C15.0169 22.283 14.8866 22.1241 14.8096 21.9383C14.7326 21.7525 14.7125 21.548 14.7517 21.3508C14.791 21.1535 14.8878 20.9723 15.0301 20.8301C15.1723 20.6878 15.3535 20.591 15.5508 20.5517C15.748 20.5125 15.9525 20.5326 16.1383 20.6096C16.3241 20.6866 16.483 20.8169 16.5947 20.9842C16.7065 21.1514 16.7661 21.348 16.7661 21.5491C16.7661 21.8189 16.659 22.0775 16.4682 22.2682C16.2775 22.459 16.0189 22.5661 15.7492 22.5661ZM17.4915 17.6881C17.2313 17.7688 17.0038 17.9309 16.8427 18.1506C16.6816 18.3703 16.5953 18.636 16.5966 18.9085C16.5966 19.1332 16.5073 19.3488 16.3484 19.5077C16.1895 19.6666 15.9739 19.7559 15.7492 19.7559C15.5244 19.7559 15.3088 19.6666 15.1499 19.5077C14.991 19.3488 14.9017 19.1332 14.9017 18.9085C14.899 18.2736 15.1006 17.6548 15.4766 17.1432C15.8526 16.6317 16.3831 16.2547 16.9898 16.0678C17.2504 15.9873 17.4783 15.8253 17.64 15.6056C17.8017 15.386 17.8887 15.1202 17.8881 14.8475C17.8675 14.361 17.6597 13.9013 17.3082 13.5643C16.9567 13.2274 16.4886 13.0393 16.0017 13.0393C15.5148 13.0393 15.0467 13.2274 14.6952 13.5643C14.3437 13.9013 14.1359 14.361 14.1153 14.8475C14.1153 15.0722 14.026 15.2878 13.867 15.4467C13.7081 15.6056 13.4926 15.6949 13.2678 15.6949C13.043 15.6949 12.8275 15.6056 12.6686 15.4467C12.5096 15.2878 12.4203 15.0722 12.4203 14.8475C12.449 13.9167 12.8389 13.0336 13.5074 12.3854C14.1759 11.7371 15.0705 11.3746 16.0017 11.3746C16.9329 11.3746 17.8275 11.7371 18.496 12.3854C19.1645 13.0336 19.5544 13.9167 19.5831 14.8475C19.585 15.4826 19.3827 16.1015 19.0061 16.613C18.6296 17.1245 18.0986 17.5014 17.4915 17.6881Z" fill="#00C6B7"/>
</svg>
