<svg width="33" height="35" viewBox="0 0 33 35" fill="none" xmlns="http://www.w3.org/2000/svg">
<rect width="33" height="35" rx="4" fill="#EA3333" fill-opacity="0.1"/>
<path fill-rule="evenodd" clip-rule="evenodd" d="M13.8953 16.23C13.4578 16.23 13.1119 16.57 13.1119 17C13.1119 17.42 13.4578 17.77 13.8953 17.77H20V22.55C20 25 17.9753 27 15.4724 27H10.5174C8.02471 27 6 25.01 6 22.56V11.45C6 8.99 8.03488 7 10.5276 7H15.4927C17.9753 7 20 8.99 20 11.44V16.23H13.8953ZM23.6302 13.5402L26.5502 16.4502C26.7002 16.6002 26.7802 16.7902 26.7802 17.0002C26.7802 17.2002 26.7002 17.4002 26.5502 17.5402L23.6302 20.4502C23.4802 20.6002 23.2802 20.6802 23.0902 20.6802C22.8902 20.6802 22.6902 20.6002 22.5402 20.4502C22.2402 20.1502 22.2402 19.6602 22.5402 19.3602L24.1402 17.7702H20.0002V16.2302H24.1402L22.5402 14.6402C22.2402 14.3402 22.2402 13.8502 22.5402 13.5502C22.8402 13.2402 23.3302 13.2402 23.6302 13.5402Z" fill="#EA3333"/>
</svg>
