<svg width="20" height="20" viewBox="0 0 20 20" fill="none" xmlns="http://www.w3.org/2000/svg">
<path d="M17.0087 4.17773H15.0455L13.9009 3.03056C13.5798 2.21469 12.7743 1.66663 11.8955 1.66663H7.48053C6.60169 1.66663 5.79551 2.21469 5.4758 3.02987L4.32985 4.17773H2.36733C1.06015 4.17773 0 5.23718 0 6.54506V15.966C0 17.2731 1.06015 18.3333 2.36733 18.3333H17.0087C18.3159 18.3333 19.376 17.2731 19.376 15.966V6.54506C19.376 5.23718 18.3159 4.17773 17.0087 4.17773ZM13.7037 12.4326C13.7037 12.6527 13.5252 12.8305 13.3058 12.8305H11.2637V14.8726C11.2637 15.0927 11.0859 15.2705 10.8658 15.2705H8.51023C8.29017 15.2705 8.11232 15.092 8.11232 14.8726V12.8305H6.07023C5.85017 12.8305 5.67233 12.6527 5.67233 12.4326V10.077C5.67233 9.85698 5.85087 9.67913 6.07023 9.67913H8.11232V7.63704C8.11232 7.41698 8.29017 7.23914 8.51023 7.23914H10.8658C11.0859 7.23914 11.2637 7.41767 11.2637 7.63704V9.67913H13.3058C13.5258 9.67913 13.7037 9.85698 13.7037 10.077V12.4326ZM5.66887 4.17773L6.63421 3.4859C6.76915 3.14266 7.10962 2.91223 7.48053 2.91223H11.8955C12.2664 2.91223 12.6062 3.14266 12.7418 3.48659L13.7072 4.17773H5.66887Z" fill="#023B88"/>
</svg>
