<svg width="33" height="35" viewBox="0 0 33 35" fill="none" xmlns="http://www.w3.org/2000/svg">
<rect width="33" height="35" rx="4" fill="#00C6B7" fill-opacity="0.1"/>
<g clip-path="url(#clip0_3099_4103)">
<path fill-rule="evenodd" clip-rule="evenodd" d="M14.9968 5.57104H17.0032C17.2891 5.57104 17.5229 5.8049 17.5229 6.09079V7.03734C17.5229 7.60987 17.8495 8.09873 18.3785 8.31783C18.9074 8.53692 19.4841 8.42222 19.8889 8.0174L20.5582 7.34808C20.7603 7.14595 21.0911 7.14595 21.2932 7.34808L22.712 8.76684C22.9141 8.96897 22.9141 9.29972 22.712 9.50184L22.0427 10.1712C21.6378 10.576 21.5232 11.1526 21.7422 11.6816C21.9613 12.2105 22.4502 12.5371 23.0227 12.5371H23.9693C24.2551 12.5371 24.489 12.771 24.489 13.0569V13.1123C23.3833 13.2264 22.2955 13.517 21.2296 13.9673C20.8661 14.1209 20.6836 14.5307 20.8127 14.9036L20.9038 15.1667C20.4362 15.1157 20.0035 15.0118 19.5781 14.8884C19.6395 14.6222 19.6719 14.3449 19.6719 14.0601C19.6719 12.0322 18.0279 10.3882 16 10.3882C13.972 10.3882 12.328 12.0322 12.328 14.0601C12.328 14.6337 12.4597 15.1766 12.6942 15.6602C12.4195 15.6671 12.1499 15.657 11.88 15.6286C11.5883 15.5978 11.2944 15.5454 10.9911 15.4698L11.1872 14.9036C11.3163 14.5307 11.1338 14.1209 10.7703 13.9673C9.70441 13.517 8.61658 13.2264 7.51084 13.1123V13.0569C7.51084 12.771 7.74475 12.5371 8.03059 12.5371H8.97714C9.54967 12.5371 10.0385 12.2105 10.2576 11.6816C10.4767 11.1526 10.362 10.576 9.95716 10.1712L9.28797 9.5018C9.08584 9.29967 9.08584 8.96892 9.28797 8.7668L10.7067 7.34803C10.9089 7.1459 11.2396 7.1459 11.4417 7.34803L12.111 8.01736C12.5159 8.42217 13.0925 8.53687 13.6214 8.31783C14.1504 8.09873 14.477 7.60987 14.477 7.03734V6.09075C14.477 5.8049 14.7109 5.57104 14.9968 5.57104ZM13.7838 25.2584C13.6488 25.1197 13.6518 24.8977 13.7906 24.7627C13.9293 24.6277 14.1513 24.6308 14.2863 24.7696C15.1716 25.6767 16.0513 26.5861 16.9469 27.4816C17.2489 27.7837 17.742 27.7836 18.044 27.4816C18.3452 27.1804 18.3452 26.6859 18.0439 26.3847C18.0452 26.3834 16.0775 24.3684 15.8982 24.1847C15.7632 24.0459 15.7663 23.824 15.9051 23.689C16.0439 23.554 16.2659 23.5571 16.4009 23.6958C17.2163 24.5314 18.0265 25.3729 18.8512 26.1977C19.1524 26.499 19.647 26.4989 19.9481 26.1977C20.2501 25.8958 20.2503 25.4027 19.9482 25.1007C19.9495 25.0994 17.9818 23.0844 17.8025 22.9007C17.6675 22.7619 17.6706 22.54 17.8094 22.405C17.9482 22.27 18.1702 22.2731 18.3052 22.4119C19.0874 23.2133 19.8647 24.0229 20.6558 24.814C20.9553 25.1136 21.4532 25.1136 21.7528 24.814C22.0594 24.5073 22.0418 24.018 21.7473 23.71C21.5828 23.5373 21.4182 23.3646 21.2533 23.1922C21.0121 23.094 20.7877 22.946 20.5924 22.7509L16.5071 18.6682C16.1629 18.9488 15.6647 19.3917 15.6647 19.9979C15.6647 20.7978 15.2856 21.4533 14.7088 21.9202C14.0928 22.4188 13.2483 22.6978 12.412 22.6978C12.2178 22.6978 12.0604 22.5404 12.0604 22.3462V18.5935C12.0604 18.0328 12.2777 17.5323 12.686 17.1484L13.599 16.2899C12.9779 16.3725 12.3972 16.3883 11.8086 16.3263C11.4633 16.2899 11.1173 16.2269 10.7608 16.1351L8.66008 22.2011C9.73206 22.7395 10.463 23.4847 11.2817 24.3237C11.6028 24.6527 15.1271 28.2761 15.1338 28.2694C15.3506 28.4863 15.7083 28.4789 15.9256 28.2668C16.1489 28.0475 16.1508 27.6798 15.9295 27.4584L13.7838 25.2584ZM21.1585 15.9021C20.2639 15.8483 19.4973 15.6058 18.7092 15.3563C17.3639 14.9305 16.2975 14.7153 15.1438 15.8001L13.1667 17.6591C12.8943 17.9152 12.7636 18.2196 12.7636 18.5933V21.975C13.3239 21.9129 13.8611 21.7043 14.2666 21.3761C14.6859 21.0367 14.9615 20.5659 14.9615 19.9977C14.9615 19.014 15.6992 18.4186 16.1394 18.0633C16.1523 18.0529 16.2966 17.933 16.2967 17.9332C16.434 17.8107 16.6447 17.815 16.777 17.9465L21.0868 22.2536C21.4637 22.6303 21.9859 22.7349 22.4792 22.5336C22.7785 22.4114 23.053 22.2788 23.3206 22.1455L21.1585 15.9021ZM27.4844 13.9559C25.4906 13.553 23.4969 13.7727 21.5032 14.6149C21.4804 14.6245 21.469 14.6501 21.4771 14.6734L24.3177 22.8761C24.3244 22.8953 24.3417 22.9077 24.362 22.9077H27.4844V13.9559ZM4.51562 13.9559V22.9077H7.63797C7.65831 22.9077 7.67561 22.8953 7.68227 22.8761L10.5229 14.6734C10.531 14.65 10.5196 14.6245 10.4968 14.6149C8.50309 13.7727 6.50936 13.553 4.51562 13.9559Z" fill="#00C6B7"/>
</g>
<defs>
<clipPath id="clip0_3099_4103">
<rect width="24" height="24" fill="white" transform="translate(4 5)"/>
</clipPath>
</defs>
</svg>
