<svg width="33" height="35" viewBox="0 0 33 35" fill="none" xmlns="http://www.w3.org/2000/svg">
<rect width="33" height="35" rx="4" fill="#00C6B7" fill-opacity="0.1"/>
<path d="M24.1816 9.1816C22.8411 9.03895 21.5216 8.74073 20.25 8.29296C19.0831 7.88066 17.9637 7.34439 16.9111 6.69335C16.6365 6.52663 16.3213 6.43848 16 6.43848C15.6787 6.43848 15.3635 6.52663 15.0889 6.69335L15.0879 6.69435C14.0355 7.34486 12.9165 7.88078 11.75 8.29296C10.4787 8.74063 9.15959 9.03886 7.81934 9.18163C7.38882 9.22572 6.98997 9.42801 6.70005 9.74931C6.41013 10.0706 6.24976 10.4881 6.25 10.9209V16.1162C6.2507 18.033 6.76367 19.9149 7.73582 21.5669C8.70796 23.219 10.1039 24.5812 11.7793 25.5127L15.1494 27.3857C15.409 27.5316 15.7017 27.6083 15.9995 27.6083C16.2973 27.6083 16.5901 27.5316 16.8496 27.3857L20.2207 25.5127C21.8961 24.5812 23.292 23.219 24.2642 21.5669C25.2363 19.9149 25.7493 18.033 25.75 16.1162V10.9209C25.7503 10.4882 25.5901 10.0709 25.3003 9.74958C25.0106 9.42829 24.612 9.2259 24.1816 9.1816ZM19.9795 15.1836L16.2295 19.1836C16.0514 19.3739 15.806 19.4871 15.5456 19.499C15.2853 19.5108 15.0306 19.4204 14.8359 19.2471L12.5859 17.2471C12.3878 17.071 12.2677 16.8233 12.2522 16.5587C12.2366 16.2941 12.3268 16.0341 12.5029 15.836C12.679 15.6378 12.9267 15.5178 13.1913 15.5022C13.4559 15.4866 13.7159 15.5768 13.9141 15.7529L15.4365 17.1055L18.5205 13.8164C18.6141 13.7167 18.7271 13.6372 18.8526 13.5828C18.978 13.5284 19.1133 13.5002 19.25 13.5C19.445 13.5001 19.6356 13.5571 19.7986 13.6642C19.9615 13.7712 20.0896 13.9235 20.1671 14.1024C20.2446 14.2813 20.2682 14.4789 20.2348 14.671C20.2015 14.8631 20.1127 15.0413 19.9795 15.1836Z" fill="#00C6B7"/>
</svg>
