<svg width="21" height="20" viewBox="0 0 21 20" fill="none" xmlns="http://www.w3.org/2000/svg">
<path fill-rule="evenodd" clip-rule="evenodd" d="M6.60866 1.66699H14.3912C17.2253 1.66699 18.8253 3.27449 18.8337 6.10866V13.892C18.8337 16.7253 17.2253 18.3337 14.3912 18.3337H6.60866C3.77449 18.3337 2.16699 16.7253 2.16699 13.892V6.10866C2.16699 3.27449 3.77449 1.66699 6.60866 1.66699ZM10.5412 14.8837C10.9003 14.8837 11.1995 14.617 11.2328 14.2587V5.76699C11.2662 5.50866 11.142 5.24949 10.917 5.10866C10.6828 4.96699 10.3995 4.96699 10.1753 5.10866C9.94949 5.24949 9.82533 5.50866 9.84949 5.76699V14.2587C9.89199 14.617 10.1912 14.8837 10.5412 14.8837ZM14.3753 14.8837C14.7253 14.8837 15.0245 14.617 15.067 14.2587V11.5253C15.0912 11.2578 14.967 11.0087 14.7412 10.867C14.517 10.7253 14.2337 10.7253 14.0003 10.867C13.7745 11.0087 13.6503 11.2578 13.6837 11.5253V14.2587C13.717 14.617 14.0162 14.8837 14.3753 14.8837ZM7.34949 14.2587C7.31616 14.617 7.01699 14.8837 6.65783 14.8837C6.29949 14.8837 5.99949 14.617 5.96699 14.2587V8.50033C5.94199 8.24116 6.06616 7.98366 6.29199 7.84199C6.51616 7.70033 6.80033 7.70033 7.02533 7.84199C7.24949 7.98366 7.37533 8.24116 7.34949 8.50033V14.2587Z" fill="#ACAFB5"/>
</svg>
