<svg width="33" height="35" viewBox="0 0 33 35" fill="none" xmlns="http://www.w3.org/2000/svg">
<rect width="33" height="35" rx="4" fill="#E8EFF8"/>
<g clip-path="url(#clip0_3099_3129)">
<path d="M16 5.75C13.775 5.75 11.5999 6.4098 9.74984 7.64597C7.89979 8.88213 6.45785 10.6391 5.60636 12.6948C4.75487 14.7505 4.53209 17.0125 4.96617 19.1948C5.40025 21.3771 6.47171 23.3816 8.04505 24.955C9.61839 26.5283 11.623 27.5998 13.8052 28.0338C15.9875 28.4679 18.2495 28.2451 20.3052 27.3936C22.3609 26.5422 24.1179 25.1002 25.354 23.2502C26.5902 21.4001 27.25 19.225 27.25 17C27.2466 14.0174 26.0603 11.1578 23.9512 9.04878C21.8422 6.93972 18.9827 5.75337 16 5.75ZM12.7698 13.1697L15.4698 10.4698C15.5394 10.3999 15.6222 10.3445 15.7133 10.3067C15.8044 10.2689 15.9021 10.2494 16.0008 10.2494C16.0994 10.2494 16.1971 10.2689 16.2882 10.3067C16.3793 10.3445 16.4621 10.3999 16.5318 10.4698L19.2318 13.1697C19.3034 13.2389 19.3605 13.3217 19.3998 13.4132C19.4391 13.5047 19.4598 13.6031 19.4607 13.7027C19.4616 13.8023 19.4426 13.901 19.4049 13.9932C19.3672 14.0854 19.3115 14.1691 19.2411 14.2395C19.1706 14.31 19.0869 14.3657 18.9947 14.4034C18.9025 14.4411 18.8038 14.4601 18.7042 14.4592C18.6046 14.4583 18.5062 14.4376 18.4147 14.3983C18.3232 14.359 18.2404 14.3019 18.1713 14.2303L16.75 12.8105V19.4C16.75 19.5989 16.671 19.7897 16.5303 19.9303C16.3897 20.071 16.1989 20.15 16 20.15C15.8011 20.15 15.6103 20.071 15.4697 19.9303C15.329 19.7897 15.25 19.5989 15.25 19.4V12.8105L13.8303 14.2303C13.7611 14.3019 13.6783 14.359 13.5868 14.3983C13.4953 14.4376 13.3969 14.4583 13.2973 14.4592C13.1977 14.4601 13.099 14.4411 13.0068 14.4034C12.9146 14.3657 12.8309 14.31 12.7605 14.2395C12.69 14.1691 12.6343 14.0854 12.5966 13.9932C12.5589 13.901 12.54 13.8023 12.5408 13.7027C12.5417 13.6031 12.5624 13.5047 12.6017 13.4132C12.641 13.3217 12.6981 13.2389 12.7698 13.1697ZM21.475 21.5C21.475 21.6989 21.396 21.8897 21.2553 22.0303C21.1147 22.171 20.9239 22.25 20.725 22.25H11.275C11.0761 22.25 10.8853 22.171 10.7447 22.0303C10.604 21.8897 10.525 21.6989 10.525 21.5V19.4C10.525 19.2011 10.604 19.0103 10.7447 18.8697C10.8853 18.729 11.0761 18.65 11.275 18.65C11.4739 18.65 11.6647 18.729 11.8053 18.8697C11.946 19.0103 12.025 19.2011 12.025 19.4V20.75H19.975V19.4C19.975 19.2011 20.054 19.0103 20.1947 18.8697C20.3353 18.729 20.5261 18.65 20.725 18.65C20.9239 18.65 21.1147 18.729 21.2553 18.8697C21.396 19.0103 21.475 19.2011 21.475 19.4V21.5Z" fill="#023B88"/>
</g>
<defs>
<clipPath id="clip0_3099_3129">
<rect width="24" height="24" fill="white" transform="translate(4 5)"/>
</clipPath>
</defs>
</svg>
